<?xml version="1.0" encoding="utf-8"?>
<!-- Generator: Adobe Illustrator 18.1.1, SVG Export Plug-In . SVG Version: 6.00 Build 0)  -->
<svg version="1.1" id="Layer_1" xmlns="http://www.w3.org/2000/svg" xmlns:xlink="http://www.w3.org/1999/xlink" x="0px" y="0px"
	 viewBox="0 0 1077.6 1080" enable-background="new 0 0 1077.6 1080" xml:space="preserve">
<g>
	<g>
		<g>
			<path d="M851.9,520.5c-124.5,0-225.7,101.3-225.7,225.7c0,124.5,101.3,225.7,225.7,225.7s225.7-101.3,225.7-225.7
				C1077.6,621.8,976.3,520.5,851.9,520.5z M1048.6,746.2c0,108.5-88.2,196.7-196.7,196.7s-196.7-88.2-196.7-196.7
				c0-108.5,88.2-196.7,196.7-196.7S1048.6,637.8,1048.6,746.2z"/>
			<path d="M623.4,854.5l-0.3-0.7H99.4c-36.4,0-65.9-29.6-65.9-65.9V297.1c0-36.4,29.6-65.9,65.9-65.9h801
				c36.4,0,65.9,29.6,65.9,65.9v223.7l0.7,0.3c9.9,5.1,19.4,10.8,28.4,17l1.9,1.3V297.1c0-53.5-43.5-96.9-96.9-96.9h-801
				c-53.5,0-96.9,43.5-96.9,96.9v490.8c0,53.5,43.5,96.9,96.9,96.9h541l-1.2-1.9C633.2,873.6,627.9,864,623.4,854.5z"/>
			<path d="M665.9,495.5l0.6-0.5c25.2-19.8,47.9-37.6,70.4-55.5l48.5-38.3l0.3-0.2c44.9-35.5,83.7-66.2,91.9-72
				c2.2-1.2,2.9-1.9,3.9-2.9c6.5-6.5,6.9-16.1,1-22.8c-3.2-3.7-6.3-5.4-10-5.4c-6.8,0-14.8,5.8-21.9,11l-0.9,0.7
				c-4.4,3.1-9.8,7.3-16,12.1l-1.4,1.1c-4.6,3.5-9.6,7.3-14.9,11.4c-28.8,22.8-64.9,51-101.4,79.2C656.6,460,591.5,510.9,535.1,555
				c-10.2,7.9-23.5,12.3-37.6,12.3c-14,0-27.6-4.3-38.2-12.2L124.5,301.8c-2.3-1.7-5.3-2.7-8.5-2.7c-5.1,0-10.1,2.4-13,6.2
				c-5.1,6.8-3.5,16.2,3.5,21.5l266.9,203.3l-4.6,3.6c-39.4,31.1-115.4,96-191.7,161.6c-33.1,27.6-64.5,54.5-70,60
				c-1.1,1.1-2.2,1.6-2.9,2l-0.3,0.2c-6.6,6.4-7,16-1.1,22.8c3.4,4.2,6.7,6.3,10,6.3c7,0,17.2-8.8,31.3-21.1l1.4-1.2
				c6.9-5.8,15.1-12.8,23.5-20c8.7-7.5,18.4-15.8,29-24.7c15.1-12.8,31.3-26.8,48-41l0.4-0.3c59.4-50.9,120.8-103.5,150.4-126.1
				l2.7-2.1l42.9,32.2c16.9,12.7,35.9,19.2,56.4,19.2c20.9,0,40.8-6.6,57.5-19.2l6.5-5.1c8.1-6.4,17.3-13.6,27-20.6l2.8-2l2.7,2.2
				c12.1,9.7,28.9,23.6,50.1,41.3l1,0.8l0.8-1.1c5.9-8.1,12.2-15.8,18.7-22.9l0.9-1l-1-0.8c-17.7-14.8-32.5-27-43.8-36.1l-4.5-3.6
				l4.5-3.6C636.2,518.7,651,507.2,665.9,495.5z"/>
		</g>
	</g>
	<path d="M712.2,739.5c-1.7,4.2-1.7,9.1,0.1,13.6c0.9,2,2.1,3.7,3.5,5.1l87.8,87.9c6.8,6.8,17.8,6.8,24.6,0s6.8-17.8,0-24.6l-58-58
		l205.3,0.1c4.6,0,9-1.8,12.3-5.1c3.3-3.3,5.1-7.7,5.1-12.3c0-4.7-1.8-9.1-5.1-12.4c-3.2-3.2-7.5-5-12.4-5.2l-205.1,0.1l57.6-57.6
		c6.8-6.8,6.8-17.8,0-24.6c-6.8-6.8-17.8-6.8-24.6,0l-87.3,87.3C714.4,735.4,713.1,737.4,712.2,739.5z"/>
</g>
</svg>
