<?xml version="1.0" encoding="utf-8"?>
<!-- Generator: Adobe Illustrator 18.1.1, SVG Export Plug-In . SVG Version: 6.00 Build 0)  -->
<svg version="1.1" id="Layer_1" xmlns="http://www.w3.org/2000/svg" xmlns:xlink="http://www.w3.org/1999/xlink" x="0px" y="0px"
	 viewBox="0 0 1077.6 1080" enable-background="new 0 0 1077.6 1080" xml:space="preserve">
<path d="M1069.7,570.8L865.4,366.5V231.8c0-31.4-25.5-56.9-56.9-56.9h-13.5c-30.5,0-56,24.9-56.7,55.5l-0.2,8.7L579,80.1
	c-10.7-10.7-25-16.7-40.2-16.7c-15.2,0-29.5,5.9-40.2,16.7L7.9,570.8c-3.1,3.1-4.8,7.2-4.8,11.6c0,4.4,1.7,8.5,4.8,11.6
	c3,3,7.2,4.7,11.6,4.7s8.7-1.7,11.6-4.7l90.5-90.6v456.2c0,31.4,25.5,56.9,56.9,56.9h727.6c31.4,0,56.9-25.5,56.9-56.9V510.7
	l83.3,83.3c3.5,3.4,7.4,5.1,11.3,5.1c5.3,0,10-3.2,11.9-5.1c3.1-3.1,4.8-7.2,4.8-11.6C1074.5,578,1072.8,573.9,1069.7,570.8z
	 M795.1,207.9h13.5c13.2,0,24,10.8,24,24v101.8l-61.4-61.4v-40.3C771.1,218.6,781.9,207.9,795.1,207.9z M464.6,650.9
	c0-13.2,10.8-24,24-24h107.8c13.2,0,24,10.8,24,24v332.8H464.6V650.9z M596.3,594H488.5c-31.4,0-56.9,25.5-56.9,56.9v332.8h-253
	c-13.2,0-24-10.8-24-24V470.6l367.2-367.2c4.3-4.3,10.5-6.8,16.9-6.8s12.6,2.5,16.9,6.8l374.5,374.5v481.9c0,13.2-10.8,24-24,24
	h-253V650.9C653.2,619.5,627.7,594,596.3,594z"/>
</svg>
