<?xml version="1.0" encoding="utf-8"?>
<!-- Generator: Adobe Illustrator 18.1.1, SVG Export Plug-In . SVG Version: 6.00 Build 0)  -->
<svg version="1.1" id="Layer_1" xmlns="http://www.w3.org/2000/svg" xmlns:xlink="http://www.w3.org/1999/xlink" x="0px" y="0px"
	 viewBox="0 0 1077.6 1080" enable-background="new 0 0 1077.6 1080" xml:space="preserve">
<g>
	<path d="M29.2,1073h1019.3c14.9,0,26.9-12,26.9-26.9V212.1c0-14.9-12-26.9-26.9-26.9H843.8V26.9c0-14.9-12-26.9-26.9-26.9H260.7
		c-14.9,0-26.9,12-26.9,26.9v158.3H29.2c-14.9,0-26.9,12-26.9,26.9v834.1C2.3,1061,14.3,1073,29.2,1073z M638.9,1041.8H438.7V887.8
		h200.2V1041.8z M843.8,216.5H1044v825.3H843.8V216.5z M265.1,31.3h547.5v1010.5H670.2V856.6H407.4v185.2H265.1V31.3z M33.6,216.5
		h200.2v825.3H33.6V216.5z"/>
	<path d="M928.3,316.6V386c0,8.6,7,15.6,15.6,15.6l0,0c8.6,0,15.6-7,15.6-15.6v-69.5c0-8.6-7-15.6-15.6-15.6l0,0
		C935.3,300.9,928.3,308,928.3,316.6z"/>
	<path d="M708.4,177.7v69.5c0,8.6,7,15.6,15.6,15.6h0c8.6,0,15.6-7,15.6-15.6v-69.5c0-8.6-7-15.6-15.6-15.6h0
		C715.4,162.1,708.4,169.1,708.4,177.7z"/>
	<path d="M585.7,177.7v34.7c0,8.6,7,15.6,15.6,15.6l0,0c8.6,0,15.6-7,15.6-15.6v-34.7c0-8.6-7-15.6-15.6-15.6l0,0
		C592.7,162.1,585.7,169.1,585.7,177.7z"/>
	<path d="M460.7,177.7v34.7c0,8.6,7,15.6,15.6,15.6l0,0c8.6,0,15.6-7,15.6-15.6v-34.7c0-8.6-7-15.6-15.6-15.6l0,0
		C467.7,162.1,460.7,169.1,460.7,177.7z"/>
	<path d="M585.7,675.4v34.7c0,8.6,7,15.6,15.6,15.6l0,0c8.6,0,15.6-7,15.6-15.6v-34.7c0-8.6-7-15.6-15.6-15.6l0,0
		C592.7,659.8,585.7,666.8,585.7,675.4z"/>
	<path d="M460.7,675.4v34.7c0,8.6,7,15.6,15.6,15.6l0,0c8.6,0,15.6-7,15.6-15.6v-34.7c0-8.6-7-15.6-15.6-15.6l0,0
		C467.7,659.8,460.7,666.8,460.7,675.4z"/>
	<path d="M338,177.7v69.5c0,8.6,7,15.6,15.6,15.6l0,0c8.6,0,15.6-7,15.6-15.6v-69.5c0-8.6-7-15.6-15.6-15.6l0,0
		C345,162.1,338,169.1,338,177.7z"/>
	<path d="M708.4,640.7v69.5c0,8.6,7,15.6,15.6,15.6h0c8.6,0,15.6-7,15.6-15.6v-69.5c0-8.6-7-15.6-15.6-15.6h0
		C715.4,625.1,708.4,632.1,708.4,640.7z"/>
	<path d="M338,640.7v69.5c0,8.6,7,15.6,15.6,15.6l0,0c8.6,0,15.6-7,15.6-15.6v-69.5c0-8.6-7-15.6-15.6-15.6l0,0
		C345,625.1,338,632.1,338,640.7z"/>
	<path d="M928.3,501.8v69.4c0,8.6,7,15.6,15.6,15.6l0,0c8.6,0,15.6-7,15.6-15.6v-69.4c0-8.6-7-15.6-15.6-15.6l0,0
		C935.3,486.2,928.3,493.2,928.3,501.8z"/>
	<path d="M928.3,687v69.5c0,8.6,7,15.6,15.6,15.6l0,0c8.6,0,15.6-7,15.6-15.6V687c0-8.6-7-15.6-15.6-15.6l0,0
		C935.3,671.4,928.3,678.4,928.3,687z"/>
	<path d="M928.3,872.2v69.4c0,8.6,7,15.6,15.6,15.6l0,0c8.6,0,15.6-7,15.6-15.6v-69.4c0-8.6-7-15.6-15.6-15.6l0,0
		C935.3,856.6,928.3,863.6,928.3,872.2z"/>
	<path d="M118,316.6V386c0,8.6,7,15.6,15.6,15.6l0,0c8.6,0,15.6-7,15.6-15.6v-69.5c0-8.6-7-15.6-15.6-15.6l0,0
		C125,300.9,118,308,118,316.6z"/>
	<path d="M118,501.8v69.4c0,8.6,7,15.6,15.6,15.6l0,0c8.6,0,15.6-7,15.6-15.6v-69.4c0-8.6-7-15.6-15.6-15.6l0,0
		C125,486.2,118,493.2,118,501.8z"/>
	<path d="M118,687v69.5c0,8.6,7,15.6,15.6,15.6l0,0c8.6,0,15.6-7,15.6-15.6V687c0-8.6-7-15.6-15.6-15.6l0,0
		C125,671.4,118,678.4,118,687z"/>
	<path d="M118,872.2v69.4c0,8.6,7,15.6,15.6,15.6l0,0c8.6,0,15.6-7,15.6-15.6v-69.4c0-8.6-7-15.6-15.6-15.6l0,0
		C125,856.6,118,863.6,118,872.2z"/>
	<g>
		<path d="M538.8,567.9c6.9,0,15.8-7.6,15.8-15.8v-9.5l5.8-1.9c25.4-8.2,42.5-30,42.5-54.3c0-9.8-2.1-28.2-16-42
			c-11.1-11-27.7-16.8-48.1-16.8c-12,0-20.4-2.7-25.9-8.1c-4.6-4.6-6.6-10.6-6.6-19.6c0-8.6,11.5-25.4,32.6-25.4
			c21.8,0,30.7,8.4,34.3,15.5c2.5,4.8,8.5,8.1,14.7,8.1c2.5,0,4.8-0.5,6.8-1.6c7.1-3.7,10.3-14,6.6-21.2
			c-9.5-18.6-27.2-26.4-40.3-29.7l-6.3-1.6v-9.6c0-8.7-8.6-15.8-15.8-15.8c-7.1,0-15.8,8.7-15.8,15.8v9.9l-5.9,1.9
			c-25.4,8.1-42.5,29.6-42.5,53.6c0,9.8,2.1,28.2,16,42c11.2,11.1,28.3,17.2,48.1,17.2c12.4,0,20.6,2.5,25.9,7.7
			c4.6,4.6,6.6,10.6,6.6,19.6c0,8.7-11.5,25.8-32.6,25.8c-21.6,0-30.6-8.6-34.3-15.9c-2.5-4.8-8.5-8.1-14.7-8.1
			c-2.5,0-4.8,0.5-6.8,1.6c-7.1,3.7-10.3,14-6.6,21.2c7.5,14.6,21.9,25.3,40.4,30.1l6.3,1.6v9.5C523,560.2,531.9,567.9,538.8,567.9z
			"/>
		<path d="M538.8,246.2c-108.7,0-197.1,88.4-197.1,197.1c0,108.7,88.4,197.1,197.1,197.1c108.7,0,197.1-88.4,197.1-197.1
			C735.9,334.6,647.5,246.2,538.8,246.2z M538.8,608.8c-91.3,0-165.5-74.3-165.5-165.6s74.3-165.5,165.5-165.5
			c91.3,0,165.6,74.3,165.6,165.5S630.1,608.8,538.8,608.8z"/>
	</g>
</g>
</svg>
