<?xml version="1.0" encoding="utf-8"?>
<!-- Generator: Adobe Illustrator 18.1.1, SVG Export Plug-In . SVG Version: 6.00 Build 0)  -->
<svg version="1.1" id="Layer_1" xmlns="http://www.w3.org/2000/svg" xmlns:xlink="http://www.w3.org/1999/xlink" x="0px" y="0px"
	 viewBox="0 0 1077.6 1080" enable-background="new 0 0 1077.6 1080" xml:space="preserve">
<g>
	<g>
		<path d="M933.1,687.6c-58.4-65.4-139.4-98.7-240.4-98.7c-4.5,0-7.2,1.2-10.7,4.7c-2.4,2.3-57,53.5-144.4,53.5
			c-72.4,0-130.8-36.6-144.1-53.8l-0.3,0.3c-3.5-3.5-6.2-4.7-10.7-4.7c-101.8,0-181.9,33.2-238,98.7
			C24.8,826.4,58.6,1062.8,59.1,1065c1.8,8.9,8.3,15,15.6,15h928.2c7.3,0,13.8-6.2,15.5-14.6C1019,1062.8,1052.8,826.4,933.1,687.6z
			 M446.1,658.9c26.9,9.8,56.9,18.9,93.9,18.9c37,0,67-9.1,93.9-18.9l20.6-7.5L540,888.9L425.6,651.4L446.1,658.9z M990,1041.2
			l-0.7,8.2H88.3l-0.7-8.2c-5.5-66.1-8.5-230.9,82.2-331.4c46.5-53.8,111.9-82.6,200-87.7l5.9-0.3l150.4,310.7
			c2.5,5.8,9,7.7,13.8,7.7c4.8,0,11.3-1.9,13.6-7.3l148.1-310.9l5.8,0.2c84.7,2.5,152.1,32.1,200.3,87.9
			C1003.2,818.5,993,1004.9,990,1041.2z"/>
		<path d="M537.6,0C395.5,0,279.9,115.6,279.9,257.7c0,142.1,115.6,257.7,257.7,257.7c142.1,0,257.7-115.6,257.7-257.7
			C795.3,115.6,679.7,0,537.6,0z M537.6,484.7c-125.2,0-227-101.8-227-227c0-125.2,101.8-227,227-227c125.2,0,227,101.8,227,227
			C764.6,382.8,662.8,484.7,537.6,484.7z"/>
	</g>
</g>
</svg>
