<?xml version="1.0" encoding="utf-8"?>
<!-- Generator: Adobe Illustrator 18.1.1, SVG Export Plug-In . SVG Version: 6.00 Build 0)  -->
<svg version="1.1" id="Layer_1" xmlns="http://www.w3.org/2000/svg" xmlns:xlink="http://www.w3.org/1999/xlink" x="0px" y="0px"
	 viewBox="0 0 1077.6 1080" enable-background="new 0 0 1077.6 1080" xml:space="preserve">
<g>
	<path d="M33.4,1070h1010.8c14.7,0,26.7-11.9,26.7-26.7V216.2c0-14.7-11.9-26.7-26.7-26.7H841.3v-157c0-14.7-11.9-26.7-26.7-26.7
		H263c-14.7,0-26.7,11.9-26.7,26.7v157H33.4c-14.7,0-26.7,11.9-26.7,26.7v827.2C6.7,1058.1,18.7,1070,33.4,1070z M638.1,1039H439.5
		V886.4h198.6V1039z M841.3,220.6h198.6V1039H841.3V220.6z M267.3,36.9h542.9V1039H669.1V855.3H408.5V1039H267.3V36.9z M37.8,220.6
		h198.6V1039H37.8V220.6z"/>
	<path d="M925.1,319.9v68.9c0,8.6,6.9,15.5,15.5,15.5l0,0c8.6,0,15.5-6.9,15.5-15.5v-68.9c0-8.6-6.9-15.5-15.5-15.5l0,0
		C932,304.3,925.1,311.3,925.1,319.9z"/>
	<path d="M707,182.1V251c0,8.6,6.9,15.5,15.5,15.5h0c8.6,0,15.5-6.9,15.5-15.5v-68.9c0-8.6-6.9-15.5-15.5-15.5h0
		C713.9,166.6,707,173.5,707,182.1z"/>
	<path d="M585.3,182.1V251c0,8.6,6.9,15.5,15.5,15.5l0,0c8.6,0,15.5-6.9,15.5-15.5v-68.9c0-8.6-6.9-15.5-15.5-15.5l0,0
		C592.2,166.6,585.3,173.5,585.3,182.1z"/>
	<path d="M461.3,182.1V251c0,8.6,6.9,15.5,15.5,15.5l0,0c8.6,0,15.5-6.9,15.5-15.5v-68.9c0-8.6-6.9-15.5-15.5-15.5l0,0
		C468.2,166.6,461.3,173.5,461.3,182.1z"/>
	<path d="M339.6,182.1V251c0,8.6,6.9,15.5,15.5,15.5l0,0c8.6,0,15.5-6.9,15.5-15.5v-68.9c0-8.6-6.9-15.5-15.5-15.5l0,0
		C346.6,166.6,339.6,173.5,339.6,182.1z"/>
	<path d="M707,411.7v68.9c0,8.6,6.9,15.5,15.5,15.5h0c8.6,0,15.5-6.9,15.5-15.5v-68.9c0-8.6-6.9-15.5-15.5-15.5h0
		C713.9,396.2,707,403.1,707,411.7z"/>
	<path d="M585.3,411.7v68.9c0,8.6,6.9,15.5,15.5,15.5l0,0c8.6,0,15.5-6.9,15.5-15.5v-68.9c0-8.6-6.9-15.5-15.5-15.5l0,0
		C592.2,396.2,585.3,403.1,585.3,411.7z"/>
	<path d="M461.3,411.7v68.9c0,8.6,6.9,15.5,15.5,15.5l0,0c8.6,0,15.5-6.9,15.5-15.5v-68.9c0-8.6-6.9-15.5-15.5-15.5l0,0
		C468.2,396.2,461.3,403.1,461.3,411.7z"/>
	<path d="M339.6,411.7v68.9c0,8.6,6.9,15.5,15.5,15.5l0,0c8.6,0,15.5-6.9,15.5-15.5v-68.9c0-8.6-6.9-15.5-15.5-15.5l0,0
		C346.6,396.2,339.6,403.1,339.6,411.7z"/>
	<path d="M707,641.3v68.9c0,8.6,6.9,15.5,15.5,15.5h0c8.6,0,15.5-6.9,15.5-15.5v-68.9c0-8.6-6.9-15.5-15.5-15.5h0
		C713.9,625.8,707,632.7,707,641.3z"/>
	<path d="M585.3,641.3v68.9c0,8.6,6.9,15.5,15.5,15.5l0,0c8.6,0,15.5-6.9,15.5-15.5v-68.9c0-8.6-6.9-15.5-15.5-15.5l0,0
		C592.2,625.8,585.3,632.7,585.3,641.3z"/>
	<path d="M461.3,641.3v68.9c0,8.6,6.9,15.5,15.5,15.5l0,0c8.6,0,15.5-6.9,15.5-15.5v-68.9c0-8.6-6.9-15.5-15.5-15.5l0,0
		C468.2,625.8,461.3,632.7,461.3,641.3z"/>
	<path d="M339.6,641.3v68.9c0,8.6,6.9,15.5,15.5,15.5l0,0c8.6,0,15.5-6.9,15.5-15.5v-68.9c0-8.6-6.9-15.5-15.5-15.5l0,0
		C346.6,625.8,339.6,632.7,339.6,641.3z"/>
	<path d="M925.1,503.5v68.9c0,8.6,6.9,15.5,15.5,15.5l0,0c8.6,0,15.5-6.9,15.5-15.5v-68.9c0-8.6-6.9-15.5-15.5-15.5l0,0
		C932,488,925.1,495,925.1,503.5z"/>
	<path d="M925.1,687.2v68.9c0,8.6,6.9,15.5,15.5,15.5l0,0c8.6,0,15.5-6.9,15.5-15.5v-68.9c0-8.6-6.9-15.5-15.5-15.5l0,0
		C932,671.7,925.1,678.6,925.1,687.2z"/>
	<path d="M925.1,870.9v68.9c0,8.6,6.9,15.5,15.5,15.5l0,0c8.6,0,15.5-6.9,15.5-15.5v-68.9c0-8.6-6.9-15.5-15.5-15.5l0,0
		C932,855.3,925.1,862.3,925.1,870.9z"/>
	<path d="M121.5,319.9v68.9c0,8.6,6.9,15.5,15.5,15.5l0,0c8.6,0,15.5-6.9,15.5-15.5v-68.9c0-8.6-6.9-15.5-15.5-15.5l0,0
		C128.5,304.3,121.5,311.3,121.5,319.9z"/>
	<path d="M121.5,503.5v68.9c0,8.6,6.9,15.5,15.5,15.5l0,0c8.6,0,15.5-6.9,15.5-15.5v-68.9c0-8.6-6.9-15.5-15.5-15.5l0,0
		C128.5,488,121.5,495,121.5,503.5z"/>
	<path d="M121.5,687.2v68.9c0,8.6,6.9,15.5,15.5,15.5l0,0c8.6,0,15.5-6.9,15.5-15.5v-68.9c0-8.6-6.9-15.5-15.5-15.5l0,0
		C128.5,671.7,121.5,678.6,121.5,687.2z"/>
	<path d="M121.5,870.9v68.9c0,8.6,6.9,15.5,15.5,15.5l0,0c8.6,0,15.5-6.9,15.5-15.5v-68.9c0-8.6-6.9-15.5-15.5-15.5l0,0
		C128.5,855.3,121.5,862.3,121.5,870.9z"/>
</g>
</svg>
