<?xml version="1.0" encoding="utf-8"?>
<!-- Generator: Adobe Illustrator 18.1.1, SVG Export Plug-In . SVG Version: 6.00 Build 0)  -->
<svg version="1.1" id="Layer_1" xmlns="http://www.w3.org/2000/svg" xmlns:xlink="http://www.w3.org/1999/xlink" x="0px" y="0px"
	 viewBox="0 0 1077.6 1080" enable-background="new 0 0 1077.6 1080" xml:space="preserve">
<g>
	<path d="M1077.9,1057.9c-5.5-26.1-15.7-64.8-33.2-101.4c-20.9-43.6-58-53.9-90.7-62.9l-79.1-12.3c-45-6.1-144.3-53.8-160.2-64.6
		c-4-2.7-7.4-5.5-12.5-5.4c-5,0-11.7,3.2-15.1-3.6c-1.8-5.9-3.5-14.5-3.5-23.4c1.7-1.3,3.5-2.4,5.2-3.7c4.9-4.6,48.7-45.4,68.1-69.2
		c33.4-47.7,47.1-89.2,52.2-109.7l1.4-5.5l4.6-3.2c25.9-18.2,44.8-52.4,56.2-101.5c7.6-32.6,13.6-73.5-8.3-101
		c-0.5-0.6-1.3-1.6-2-2.5l-3.6-4.8l0.6-6C880.2,157.5,737.9,47.7,659.5,20.3l-1.7-0.5c-31-9.3-60.7-14.1-88.1-14.1
		c-5.8,0-11.7,0.2-18.2,0.7l-1.1,0.1l-1.3-0.1c-32.6-2.6-68.2,1.9-106.1,13.3l-2.1,0.7c-78.2,27.3-220.3,137-198,356.6l0.6,6.2
		l-4.5,5.6c-0.3,0.4-0.7,0.8-1,1.2c-21.9,27.7-16.1,68.6-8.5,101.2c11.4,49.1,30.3,83.3,56.2,101.5l4.6,3.2l1.4,5.5
		c5.7,22.6,20.8,67.9,58,118.3l7.7,10.5c7.4,8.2,26.9,28.7,52.1,48.5c1,11-1.3,21.9-3.5,29c-4.5,4.2-12.3,2.2-13.6,2.7
		c-0.2-0.6-0.2-0.3-0.1,0.1c-2.8,1.1-7.7,4.3-10.2,6c-15.9,10.8-111.2,58.7-156.2,64.7l-83.5,10.3c-21.5,5.8-72.5,23.9-93.4,68.2
		c-15.8,33.5-24,71.8-28.1,98.2c-0.1,0.2-0.2,0.4-0.3,0.6l-0.4,3.7c-1.2,8.5-2,15-2.4,19c0,0.4,0.1,0.7,0.3,1
		c0.2,0.3,0.6,0.4,0.9,0.4H1081c0.4,0,0.7-0.2,0.9-0.4c0.2-0.3,0.3-0.6,0.3-1C1082.2,1081.1,1080.9,1072,1077.9,1057.9z
		 M389.8,726.6l-4.2-4.4v-1.8l-0.3-0.3c-49.8-59.6-65.1-115.2-69.8-143l-0.1-0.7l-0.7-0.2c-18-6-42.6-26.8-57.6-91.3
		c-9-38.6-8-63.1,2.9-76.9c3.5-4.4,8-7.6,13.1-9.4l1-0.3l-0.1-1c-20.9-138.4,25.9-225.1,68.8-273.5C392.3,67.9,448.3,47.8,450.7,47
		l0.6-0.2c28.3-8.5,55.1-12.8,79.8-12.8c6.9,0,13.2,0.3,19.4,0.9c5.9-0.6,12.2-0.9,19.2-0.9c24.7,0,51.6,4.3,79.8,12.8l0.6,0.2
		c2.4,0.8,58.4,20.9,107.9,76.7c42.9,48.4,89.7,135.1,68.8,273.5l-0.1,1l1,0.3c5.1,1.8,9.7,5.1,13.2,9.4c11,13.8,11.9,38.2,2.9,76.9
		c-15,64.5-39.5,85.2-57.5,91.3l-0.7,0.2l-0.1,0.7c-4.6,27.5-19.7,82.5-68.8,141.7l-0.2,0.3l-0.2,2.5l-3.8,3.9
		C657.7,781,600.9,808.1,543.7,806C472.7,803.1,416.8,755,389.8,726.6z M48.1,1057.5c7-33,22.6-80.2,44.3-106.7
		c25.2-30.8,97.9-40.2,98.6-40.2l35.8-3.9c46.2-5.1,145.1-51.8,170.3-66.9c0,2.6,0.7,5.3,2.2,7.7l131.9,209.8L48.1,1057.5z
		 M425.8,834.6c4.1-3.2,4.7-7.9,4.7-7.9l0,0c1.4-3.4,5.6-14.4,7.6-28.3c10.4,6.3,20.9,11.8,31.6,16.4l1.3,0.6
		c5,2.1,10.6,3.8,16.6,5.6c1.7,0.5,3.4,1,5.1,1.5c11.3,2.9,21.7,5.1,31,6.6c1.5,0.2,3.1,0.5,4.8,0.8c3.2,0.6,6.2,1.1,9.1,1.3l1,0.1
		c1.7,0.2,3.4,0.4,5.2,0.6c2.4,0.1,4.6,0.2,7,0.2c36.3,0,72.7-10.8,108.4-31.8l-3.2,2.4c2.6,14.2,7.1,24.5,7.4,25.1
		c1.6,3.6,4.5,6.1,7.9,7.4l0,0.1c0,0,1.2,0.6,3.8,1.1l-122.3,200.2L425.8,834.6z M574.6,1057.2l127.2-208.2c1.7-2.7,2.3-5.8,2.1-8.8
		c26.5,15.6,124,61.4,169.5,66.4l35.8,3.9c0.7,0.1,73.5,9.4,98.6,40.2c21.6,26.5,37.2,73.3,44.2,106.1L574.6,1057.2z"/>
	<g>
		<path d="M545.6,616.3c-2.7,3.1-4,6.4-4,9.9c0,2.4,0.5,5.7,4.2,10.1c3.1,2.5,6.3,3.7,9.6,3.7c3.7,0,7.1-1.4,9.8-3.9
			c2.7-3.1,4-6.4,4-9.9c0-3.6-1.2-6.7-3.4-8.7l-0.7-0.6l-0.6-0.7c-2.2-2.3-5.6-3.6-9.3-3.6C553.2,612.6,549.1,613.1,545.6,616.3z"/>
		<path d="M710.4,308.7c0-66-69.6-119.6-155-119.6c-82.8,0-149.3,48-154.8,111.7c-0.6,7.6,5,14.2,12.6,14.9c0.8,0.1,1.1,0.1,1.4,0.1
			c5.9,0,12.9-5.4,13.5-12.6c4.1-48.5,60-86.5,127.2-86.5c70.3,0,127.4,41.3,127.4,92c0,61.2-70,81.2-122.7,90.9l-7.5,1.4
			c-6,1.3-10.7,7-10.7,13.4l-0.1,70.6c0,3.7,1.4,7.2,4,9.8c2.6,2.6,6.1,4.1,9.8,4.1c7.6,0,13.8-6.2,13.8-13.8l0.1-41.8l0-17
			l16.5-3.9C669.7,402.7,710.4,365.5,710.4,308.7z"/>
	</g>
</g>
</svg>
