<?xml version="1.0" encoding="utf-8"?>
<!-- Generator: Adobe Illustrator 18.1.1, SVG Export Plug-In . SVG Version: 6.00 Build 0)  -->
<svg version="1.1" id="Layer_1" xmlns="http://www.w3.org/2000/svg" xmlns:xlink="http://www.w3.org/1999/xlink" x="0px" y="0px"
	 viewBox="0 0 1077.6 1080" enable-background="new 0 0 1077.6 1080" xml:space="preserve">
<path d="M1059.9,1058.1c-5.4-25.7-15.5-64-32.8-100.1c-20.6-43-57.2-53.2-89.6-62.1c-12.1-3.3-23.5-6.5-33.4-11.1
	c-27.1-12.7-30.1-30.1-35.9-64.9c-2-11.6-4.2-24.7-7.7-40.2c-10.5-45.7-8.7-133-7.4-196.7c0.5-22.9,0.9-42.7,0.7-58
	c-0.4-34.8,2-87.7,4-134.3c1.5-33.2,2.7-61.9,2.7-77.6c0-38-22.4-122.1-72.3-189.8C761.5,87,721.6,60.7,692.9,45
	c-8.2-5.1-19.7-10.7-34.3-16.8l-2.5-1.1l-0.3-0.1l-0.5-0.2c-8-3.4-13.1-5.2-13.1-5.2C596,3.7,549,0,517.8,0
	c-37.6,0-73.2,5.3-100,15.1c-18.3,6.6-38.4,15.8-59.5,27.3c-9.7,4.2-31.1,15.9-64.7,47.1c-43.5,40.3-74.1,114.9-74.5,115.7
	c-18.9,53-23.8,169.2-10.7,253.6c9,57.9,8.8,121.7,8.7,168.3c0,17.3-0.1,32.3,0.4,43.5c1.6,40.2-11,141.9-22.9,184.4
	c-9.6,34.3-37.7,36.9-46.1,36.9c-1.2,0-1.9,0-1.9-0.1c-0.1,0-0.2,0-0.3,0c-0.8,0.1-75.7,13.9-101.9,69.7
	c-15.6,33.1-23.7,70.8-27.8,96.9c-0.1,0.2-0.2,0.4-0.3,0.6l-0.4,3.6c-1.2,8.4-2,14.8-2.4,18.7c0,0.3,0.1,0.7,0.3,1
	c0.2,0.3,0.6,0.4,0.9,0.4h1048.2c0.4,0,0.7-0.2,0.9-0.4c0.2-0.3,0.3-0.6,0.3-1C1064.1,1081.1,1062.8,1072.1,1059.9,1058.1z
	 M855.1,872.4c1.9,5.5,3.4,9.3,4.3,11.4c-44.4-6-142.4-53.1-158.1-63.7c-6-4.1-12.4-6.2-19.1-6.2c-0.7,0-1.4,0-2.1,0.1
	c-5.8-11.2-7.6-27.7-8.1-39.6l0.3-6.9c36.3-41.4,62.9-87.6,79.3-137.3c14.8-45.1,21.4-121.3,16.2-186c17.7,8.9,29.7,19.8,36.6,33.5
	c0.6,1,1.3,2.2,2.2,3.7c6.5,10.6,20.1,32.5,19.9,69c-0.5,67,0.4,156.3,4.9,205.9C835.5,802.7,848.7,852.5,855.1,872.4z M625.4,780.1
	c-35.4,33-68.9,49.8-99.5,49.8h-1.5c-30.6,0-64.1-16.8-99.6-49.8c-47.9-44.6-83.4-99.2-102.6-157.9c-17.1-52.1-20.9-106-11.3-156.2
	c7.3,0.3,14,0.4,20.5,0.4c101.9,0,196.2-36.2,288.3-110.8c6.9-5.6,13.7-11.5,20.4-17.5c6.9,30.7,30.4,71.3,101.9,95.5
	c6.7,62.8,0.8,143.7-13.9,188.6C708.8,680.9,673.3,735.5,625.4,780.1z M419.9,826.5c2.1-3.8,3.9-8.1,5.4-13
	c34.4,27.8,66.8,41.3,99,41.3h1.5c37.6,0,75.7-18.5,116.5-56.5c1.9-1.7,3.6-3.5,5.4-5.2l1,5.5c2,11.2,4.9,20.3,9,27.9l4.6,8.5
	l-122.9,201.2L414.2,836.8L419.9,826.5z M833.6,311.9c0.4,14.2-0.1,97.3-1.2,168.8c-9.3-32-36.2-55.5-80-69.8
	c-58.1-19-88.5-50.8-90.1-94.6c72.7-76.8,94.6-158.2,100.1-185C806.5,182.4,831.8,246.5,833.6,311.9z M228,311.9
	c0-158.8,133.8-288,298.4-288c76.7,0,149.6,28.1,205.3,79c2.6,2.4,5.4,5,8.5,8.1l-0.6,6c-0.2,1.2-16.6,123-135.6,219.4
	c-87.5,70.8-176.6,105.2-272.6,105.2c-8.3,0-16.8-0.2-26.6-0.7c-37.5-2.1-42.5-2.1-44.1-2.1l-0.9,0c-1.5,0-3,0.1-4.5,0.2
	c-6.4,0.4-13,1.6-20.4,3.5C223.8,394.8,228,312.8,228,311.9z M245.7,664.5c2.1-71.2-4.1-153.5-8.1-196.9l2.8-0.7
	c0.1,0,10.6-2.8,28.7-2.8c3,0,5.8,0.1,8.8,0.2c2.5,0.1,5.2,0.2,8,0.4c-9.7,53.4-5.4,110.5,12.6,165.2c20,61.1,56.6,118.1,105.8,165
	c-1.4,7.7-3.4,14-5.9,18.9c-0.7,0-1.4-0.1-2.1-0.1c-6.6,0-13,2.1-19,6.2c-15.7,10.7-114,57.9-158.4,63.8
	C222.5,872.1,241.5,804.5,245.7,664.5z M87,952.4c24.8-30.4,96.6-39.6,97.3-39.7l35.3-3.9c43.7-4.8,135.4-47.4,164.6-64
	c0,0.1,0.1,0.1,0.1,0.2L518,1057.5l-474.7,0.3C50.2,1025.2,65.6,978.6,87,952.4z M561.2,1057.4l128.8-211c0.6-0.9,1-1.9,1.3-2.8
	c27.1,15.8,122,60.2,166.6,65.1l35.3,3.9c0.7,0.1,72.5,9.3,97.4,39.7c21.3,26.1,36.7,72.4,43.6,104.8L561.2,1057.4z"/>
</svg>
