<?xml version="1.0" encoding="utf-8"?>
<!-- Generator: Adobe Illustrator 18.1.1, SVG Export Plug-In . SVG Version: 6.00 Build 0)  -->
<svg version="1.1" id="Layer_1" xmlns="http://www.w3.org/2000/svg" xmlns:xlink="http://www.w3.org/1999/xlink" x="0px" y="0px"
	 viewBox="0 0 1077.6 1080" enable-background="new 0 0 1077.6 1080" xml:space="preserve">
<path d="M1070.2,1057.7c-5.5-26.2-15.9-65.2-33.5-102c-21-43.9-58.4-54.2-91.3-63.4l-79.6-12.4c-45.3-6.1-145.2-54.1-161.3-65
	c-4-2.8-7.5-5.5-12.5-5.5c-5.1,0-11.8,3.3-15.2-3.6c-2-6.5-3.9-16.1-3.6-26c70.9-62.5,106.4-158.3,118.1-195.2
	c0.8-1.7,1.5-3.3,2.1-4.7c1.2-0.4,2.4-0.8,3.6-1.3c17.9-8.4,31.2-35.3,40.7-82.4c13.5-67.6-8.2-97-23.8-109
	c21.2-71.2,1-145.8,0.3-149.2l0,0c-2.9-40.3-9.2-81.7-20.8-108.9C767.1,67.7,713.1,27.6,642.7,10.4S506.1-1.1,425,16.1
	s-89.8,63.8-89.8,63.8s-46,2.5-78.8,66.3c-32.7,63.8-22.1,144.8-22.1,144.8s18.8,100.7,18.8,99.8c-11.5,4.1-22.9,25.4-25.4,37.6
	c-2.5,12.3-0.8,40.1,9,91.7c9.8,51.6,54,63,54,63s15.5,51.6,43.4,107.2c13.7,27.4,40.4,55.2,64,76.5c-0.9,2.3-1.3,4.8-1,7.4
	c1.6,11.9-1,24-3.4,31.7c-4.5,4.3-12.4,2.2-13.7,2.7c-0.2-0.6-0.2-0.3-0.1,0.1c-2.8,1.1-7.7,4.3-10.3,6.1
	c-16,10.9-111.9,59.1-157.2,65.1l-84,10.4c-21.6,5.9-73,24-94,68.7c-15.9,33.8-24.2,72.2-28.3,98.8c-0.1,0.2-0.2,0.4-0.3,0.6
	l-0.4,3.7c-1.3,8.5-2,15.1-2.4,19.1c0,0.4,0.1,0.7,0.3,1c0.2,0.3,0.6,0.4,0.9,0.4h1069c0.4,0,0.7-0.2,0.9-0.4c0.2-0.3,0.3-0.6,0.3-1
	C1074.5,1081.1,1073.2,1072,1070.2,1057.7z M418.4,825c1.6-3.9,6.8-17.4,8.4-34.1c5.3,4.2,9.7,7.5,12.6,9.6
	c34.4,24.1,68,36.4,100.2,36.4h1.5c30.4,0,62.1-11.2,94.4-32.7l1.3,2.2c3-1.8,5.7-3.8,8.6-5.7c2.6,14.3,7.1,24.6,7.4,25.3
	c1.6,3.6,4.6,6.1,8,7.5l0,0.1c0,0,1.2,0.6,3.8,1.1l-123.1,201.5L413.7,833C417.8,829.7,418.4,825,418.4,825L418.4,825z M780,188.5
	c-6.6-6.8-13.9-12.8-21.7-18.2c-14.3-11.2-31.3-19.4-51.1-24.7c-52.4-17-112.1-16.5-152.8-10.2c-125.1-0.3-187-47-188-47.8
	c-0.6-0.5-1.2-0.8-1.8-1.1C383.8,9.2,748.8-30.6,780,188.5z M344.8,106.9c0.9,1.4,2,2.7,3.3,3.8c1.4,1.1,18.7,14.5,52.6,27.6
	c1.6,6.7,2.6,14.6,1.5,20c-0.7,1.7-3,3.9-7.9,6.3c-4,0.6-7.9,1-11.6,1.3c-29.8,2.7-51.3,8.2-77.1,56.8
	c-16.1,30.2-28.4,78.2-36.5,116.6l-1.4-4.8C267.8,334.6,226.2,135,344.8,106.9z M321.4,599.9c-5.1-14.4-9.1-29.2-12-44.1
	c-29.2,5.5-45.3-33.2-45.3-33.2c-11.2-40.8-12.5-66.8-9.4-83.3l0,0c0,0,0.5-3.6,2.2-8.3c0.2-0.6,0.4-1.1,0.6-1.7
	c0-0.1,0-0.1,0.1-0.2c0.7-1.8,1.5-3.5,2.3-4.9c0.2-0.3,0.4-0.7,0.6-1c0.2-0.3,0.3-0.5,0.5-0.8c4.6-7.5,12.4-14.8,25.6-15.1
	c0.3-0.9,0.8-1.8,1-2.9c0.2-1.2,16.9-116.5,44.2-167.8c4.1-7.8,7.9-14,11.5-19c9.7-10.3,20.8-17.4,33.6-19.6c5.1-0.9,9.7-2,14-3.2
	c3.4-0.3,6.8-0.7,10.4-1.3c11.2-1.8,20-7.5,25.4-16.6c5.1-8.6,6.1-18.8,5.6-28.1c31.9,9,72.9,16.1,123.5,16.1l2.3-0.2
	c0,0,0.3,0,0.6-0.1c19.4,1.1,39.8,1.7,61.3,1.7c0,0,0,0,0,0c8.2,0,16.6-0.1,25.3-0.3l5.2-0.1c9.7,0,21.6,1.1,34.4,3.8
	c47.7,11.8,92.9,38.7,103.1,97.4c0.1,0.7,0.5,1.3,0.7,1.9c2.6,43.3,2.5,97.1-7.9,141.1c0,0,40.5-6,28,79.5
	c-4.7,23.3-8.3,36.2-13,44.9c-2.2,3.4-4.9,7.1-8.2,10.4c-3,2.7-6.5,5.2-10.7,8.1c-0.2,0.1-0.4,0.2-0.6,0.3l-7.2,1.8l-1.7,6.8
	c-0.3,1.1-19.6,74.1-65.1,140.2c-15.9,20.1-33.7,38.8-53.3,55.7c-28.5,24.8-66.6,50-107.7,50h-1.5c-41.1,0-79.2-25.3-107.7-50
	C382,714.8,342.6,660.2,321.4,599.9z M78.1,949.9c25.3-31,98.5-40.4,99.3-40.5l36-4c46.5-5.1,146.1-52.1,171.4-67.3
	c0,2.7,0.7,5.3,2.2,7.7L519.7,1057l-486.2,0.3C40.5,1024.1,56.2,976.6,78.1,949.9z M563.5,1057l128-209.6c1.7-2.8,2.3-5.8,2.1-8.8
	c26.7,15.7,124.8,61.8,170.7,66.9l36,4c0.7,0.1,73.9,9.5,99.3,40.5c21.7,26.6,37.4,73.8,44.5,106.9L563.5,1057z"/>
</svg>
